<svg  viewBox="0 0 53 54" fill="currentColor" xmlns="http://www.w3.org/2000/svg">
<g filter="url(#filter0_d_885_5266)">
<path d="M37.4903 19.1347L34.3653 16.0097C34.2187 15.8631 34.0198 15.7808 33.8125 15.7808C33.6052 15.7808 33.4064 15.8631 33.2598 16.0097C33.1132 16.1563 33.0308 16.3551 33.0308 16.5624C33.0308 16.7698 33.1132 16.9686 33.2598 17.1152L33.4043 17.2587L28.0166 21.2998L24.2842 22.0468C24.1331 22.0771 23.9942 22.1511 23.8848 22.2597L15.7461 30.3964C15.3066 30.836 15.0597 31.4321 15.0597 32.0537C15.0597 32.6752 15.3066 33.2714 15.7461 33.7109L19.7891 37.7539C20.2286 38.1934 20.8248 38.4403 21.4463 38.4403C22.0679 38.4403 22.664 38.1934 23.1036 37.7539L31.2403 29.6181C31.3491 29.5089 31.4232 29.3699 31.4532 29.2187L32.2002 25.4863L36.2412 20.0986L36.3848 20.2431C36.4574 20.3157 36.5436 20.3733 36.6384 20.4126C36.7332 20.4518 36.8349 20.4721 36.9375 20.4721C37.0402 20.4721 37.1418 20.4518 37.2367 20.4126C37.3315 20.3733 37.4177 20.3157 37.4903 20.2431C37.5629 20.1705 37.6204 20.0844 37.6597 19.9895C37.699 19.8947 37.7192 19.793 37.7192 19.6904C37.7192 19.5877 37.699 19.4861 37.6597 19.3912C37.6204 19.2964 37.5629 19.2102 37.4903 19.1376V19.1347ZM22.875 25.4794L28.0205 30.6249L23.6563 34.9892L18.5108 29.8437L22.875 25.4794ZM21.4463 36.8749C21.3438 36.8752 21.2423 36.8552 21.1476 36.8159C21.0529 36.7767 20.9669 36.7191 20.8946 36.6464L16.8536 32.6054C16.7071 32.4589 16.6249 32.2603 16.6249 32.0532C16.6249 31.8461 16.7071 31.6474 16.8536 31.5009L17.4063 30.9482L22.5518 36.0937L21.9961 36.6464C21.8502 36.7922 21.6526 36.8743 21.4463 36.8749ZM30.8438 24.6874C30.7737 24.7806 30.7257 24.8885 30.7032 25.0029L29.9678 28.6777L29.125 29.5205L23.9795 24.3749L24.8223 23.5322L28.4971 22.7968C28.6115 22.7743 28.7193 22.7262 28.8125 22.6562L34.5205 18.3749L35.125 18.9794L30.8438 24.6874Z" fill="currentColor"/>
</g>
<defs>
<filter id="filter0_d_885_5266" x="-1.5" y="0" width="55" height="55" filterUnits="userSpaceOnUse" color-interpolation-filters="sRGB">
<feFlood flood-opacity="0" result="BackgroundImageFix"/>
<feColorMatrix in="SourceAlpha" type="matrix" values="0 0 0 0 0 0 0 0 0 0 0 0 0 0 0 0 0 0 127 0" result="hardAlpha"/>
<feOffset/>
<feGaussianBlur stdDeviation="7.5"/>
<feComposite in2="hardAlpha" operator="out"/>
<feColorMatrix type="matrix" values="0 0 0 0 0.501961 0 0 0 0 0.352941 0 0 0 0 0.796078 0 0 0 0.5 0"/>
<feBlend mode="normal" in2="BackgroundImageFix" result="effect1_dropShadow_885_5266"/>
<feBlend mode="normal" in="SourceGraphic" in2="effect1_dropShadow_885_5266" result="shape"/>
</filter>
</defs>
</svg>
