<svg viewBox="0 0 25 26" fill="currentColor" xmlns="http://www.w3.org/2000/svg">
<g clip-path="url(#clip0_2113_29182)">
<path d="M12.5 0.601562C5.59644 0.601562 0 6.198 0 13.1016C0 20.0051 5.59644 25.6016 12.5 25.6016C19.4036 25.6016 25 20.0051 25 13.1016C25 6.198 19.4036 0.601562 12.5 0.601562ZM12.5 24.0391C6.45937 24.0391 1.5625 19.1422 1.5625 13.1016C1.5625 7.06094 6.45937 2.16406 12.5 2.16406C18.5406 2.16406 23.4375 7.06094 23.4375 13.1016C23.4375 19.1422 18.5406 24.0391 12.5 24.0391Z" fill="currentColor"/>
<path d="M12.5 14.6641C13.3629 14.6641 14.0625 13.9645 14.0625 13.1016C14.0625 12.2386 13.3629 11.5391 12.5 11.5391C11.6371 11.5391 10.9375 12.2386 10.9375 13.1016C10.9375 13.9645 11.6371 14.6641 12.5 14.6641Z" fill="currentColor"/>
<path d="M17.9688 14.6641C18.8317 14.6641 19.5312 13.9645 19.5312 13.1016C19.5312 12.2386 18.8317 11.5391 17.9688 11.5391C17.1058 11.5391 16.4062 12.2386 16.4062 13.1016C16.4062 13.9645 17.1058 14.6641 17.9688 14.6641Z" fill="currentColor"/>
<path d="M7.03125 14.6641C7.8942 14.6641 8.59375 13.9645 8.59375 13.1016C8.59375 12.2386 7.8942 11.5391 7.03125 11.5391C6.16831 11.5391 5.46875 12.2386 5.46875 13.1016C5.46875 13.9645 6.16831 14.6641 7.03125 14.6641Z" fill="currentColor"/>
</g>
<defs>
<clipPath id="clip0_2113_29182">
<rect width="25" height="25" fill="currentColor" transform="translate(0 0.601562)"/>
</clipPath>
</defs>
</svg>
