<svg viewBox="0 0 20 21" fill="currentColor" xmlns="http://www.w3.org/2000/svg">
<g clip-path="url(#clip0_1948_73407)">
<path d="M10 0.21875C4.47301 0.21875 0 4.69125 0 10.2188C0 15.7457 4.4725 20.2188 10 20.2188C15.527 20.2188 20 15.7463 20 10.2188C20 4.69176 15.5275 0.21875 10 0.21875ZM10 18.8234C5.25539 18.8234 1.39535 14.9634 1.39535 10.2188C1.39535 5.4741 5.25539 1.6141 10 1.6141C14.7446 1.6141 18.6046 5.4741 18.6046 10.2188C18.6046 14.9634 14.7446 18.8234 10 18.8234Z" fill="currentColor"/>
<path d="M9.70352 12.8721C9.15066 12.8721 8.70312 13.3328 8.70312 13.8856C8.70312 14.4253 9.1375 14.8992 9.70352 14.8992C10.2695 14.8992 10.717 14.4253 10.717 13.8856C10.717 13.3328 10.2563 12.8721 9.70352 12.8721Z" fill="currentColor"/>
<path d="M9.87437 5.19824C8.09734 5.19824 7.28125 6.25133 7.28125 6.96211C7.28125 7.47547 7.71563 7.71242 8.07102 7.71242C8.78184 7.71242 8.49227 6.69883 9.83488 6.69883C10.493 6.69883 11.0196 6.98844 11.0196 7.59394C11.0196 8.30473 10.2824 8.71277 9.84805 9.08133C9.46629 9.41035 8.96613 9.95008 8.96613 11.0821C8.96613 11.7666 9.15043 11.964 9.69008 11.964C10.335 11.964 10.4667 11.6745 10.4667 11.4243C10.4667 10.7398 10.4798 10.345 11.2038 9.77894C11.5592 9.50254 12.678 8.60742 12.678 7.37012C12.678 6.13281 11.5592 5.19824 9.87437 5.19824Z" fill="currentColor"/>
</g>
<defs>
<clipPath id="clip0_1948_73407">
<rect width="20" height="20" fill="currentColor" transform="translate(0 0.21875)"/>
</clipPath>
</defs>
</svg>
