<svg viewBox="0 0 26 26" fill="currentColor" xmlns="http://www.w3.org/2000/svg">
<g clip-path="url(#clip0_2349_29884)">
<path d="M21.1055 14.6836C21.1055 15.0881 21.4334 15.416 21.8379 15.416C22.2424 15.416 22.5703 15.0881 22.5703 14.6836C22.5703 11.3877 20.8582 10.1036 19.3477 8.9707C17.9328 7.90957 16.7109 6.99316 16.7109 4.42969C16.7109 4.0252 16.383 3.69727 15.9785 3.69727C15.574 3.69727 15.2461 4.0252 15.2461 4.42969C15.2461 7.72559 16.9582 9.00967 18.4688 10.1426C19.8836 11.2037 21.1055 12.1201 21.1055 14.6836Z" fill="currentColor"/>
<path d="M22.5703 4.42969C22.5703 4.0252 22.2424 3.69727 21.8379 3.69727C21.4334 3.69727 21.1055 4.0252 21.1055 4.42969C21.1055 7.58115 21.949 8.84653 22.6933 9.96289C23.3834 10.998 24.0352 11.9757 24.0352 14.6836C24.0352 15.0881 24.3631 15.416 24.7676 15.416C25.1721 15.416 25.5 15.0881 25.5 14.6836C25.5 11.5321 24.6564 10.2667 23.9122 9.15039C23.2221 8.11528 22.5703 7.1376 22.5703 4.42969Z" fill="currentColor"/>
<path d="M24.7676 16.8809H1.23242C0.82793 16.8809 0.5 17.2088 0.5 17.6133V22.0078C0.5 22.4123 0.82793 22.7402 1.23242 22.7402H24.7676C25.1721 22.7402 25.5 22.4123 25.5 22.0078V17.6133C25.5 17.2088 25.1721 16.8809 24.7676 16.8809ZM21.1055 18.3457V21.2754H10.8027V18.3457H21.1055ZM1.96484 18.3457H9.33789V21.2754H1.96484V18.3457ZM24.0352 21.2754H22.5703V18.3457H24.0352V21.2754Z" fill="currentColor"/>
</g>
<defs>
<clipPath id="clip0_2349_29884">
<rect width="25" height="25" fill="currentColor" transform="translate(0.5 0.71875)"/>
</clipPath>
</defs>
</svg>
